<svg xmlns="http://www.w3.org/2000/svg" xmlns:xlink="http://www.w3.org/1999/xlink" width="100" zoomAndPan="magnify" viewBox="0 0 75 74.999997" height="100" preserveAspectRatio="xMidYMid meet" version="1.0"><path fill="#e1e1e1" d="M 74.996094 37.5 C 74.996094 38.726562 74.9375 39.953125 74.816406 41.175781 C 74.695312 42.394531 74.515625 43.609375 74.277344 44.8125 C 74.039062 46.019531 73.738281 47.207031 73.382812 48.382812 C 73.027344 49.558594 72.613281 50.714844 72.144531 51.847656 C 71.671875 52.984375 71.148438 54.09375 70.570312 55.175781 C 69.992188 56.257812 69.359375 57.3125 68.679688 58.332031 C 67.996094 59.351562 67.265625 60.339844 66.484375 61.289062 C 65.707031 62.238281 64.882812 63.144531 64.015625 64.015625 C 63.144531 64.882812 62.238281 65.707031 61.289062 66.484375 C 60.339844 67.265625 59.351562 67.996094 58.332031 68.679688 C 57.3125 69.359375 56.257812 69.992188 55.175781 70.570312 C 54.09375 71.148438 52.984375 71.671875 51.847656 72.144531 C 50.714844 72.613281 49.558594 73.027344 48.382812 73.382812 C 47.207031 73.738281 46.019531 74.039062 44.8125 74.277344 C 43.609375 74.515625 42.394531 74.695312 41.175781 74.816406 C 39.953125 74.9375 38.726562 74.996094 37.5 74.996094 C 36.269531 74.996094 35.046875 74.9375 33.824219 74.816406 C 32.601562 74.695312 31.386719 74.515625 30.183594 74.277344 C 28.976562 74.039062 27.789062 73.738281 26.613281 73.382812 C 25.4375 73.027344 24.28125 72.613281 23.148438 72.144531 C 22.011719 71.671875 20.902344 71.148438 19.820312 70.570312 C 18.738281 69.992188 17.6875 69.359375 16.664062 68.679688 C 15.644531 67.996094 14.65625 67.265625 13.707031 66.484375 C 12.757812 65.707031 11.851562 64.882812 10.980469 64.015625 C 10.113281 63.144531 9.289062 62.238281 8.511719 61.289062 C 7.730469 60.339844 7 59.351562 6.320312 58.332031 C 5.636719 57.3125 5.003906 56.257812 4.425781 55.175781 C 3.847656 54.09375 3.324219 52.984375 2.851562 51.847656 C 2.382812 50.714844 1.96875 49.558594 1.613281 48.382812 C 1.257812 47.207031 0.957031 46.019531 0.71875 44.8125 C 0.480469 43.609375 0.300781 42.394531 0.179688 41.175781 C 0.0585938 39.953125 0 38.726562 0 37.5 C 0 36.269531 0.0585938 35.046875 0.179688 33.824219 C 0.300781 32.601562 0.480469 31.386719 0.71875 30.183594 C 0.957031 28.976562 1.257812 27.789062 1.613281 26.613281 C 1.96875 25.4375 2.382812 24.28125 2.851562 23.148438 C 3.324219 22.011719 3.847656 20.902344 4.425781 19.820312 C 5.003906 18.738281 5.636719 17.6875 6.320312 16.664062 C 7 15.644531 7.730469 14.65625 8.511719 13.707031 C 9.289062 12.757812 10.113281 11.851562 10.980469 10.980469 C 11.851562 10.113281 12.757812 9.289062 13.707031 8.511719 C 14.65625 7.730469 15.644531 7 16.664062 6.320312 C 17.6875 5.636719 18.738281 5.003906 19.820312 4.425781 C 20.902344 3.847656 22.011719 3.324219 23.148438 2.851562 C 24.28125 2.382812 25.4375 1.96875 26.613281 1.613281 C 27.789062 1.257812 28.976562 0.957031 30.183594 0.71875 C 31.386719 0.480469 32.601562 0.300781 33.824219 0.179688 C 35.046875 0.0585938 36.269531 0 37.5 0 C 38.726562 0 39.953125 0.0585938 41.175781 0.179688 C 42.394531 0.300781 43.609375 0.480469 44.8125 0.71875 C 46.019531 0.957031 47.207031 1.257812 48.382812 1.613281 C 49.558594 1.96875 50.714844 2.382812 51.847656 2.851562 C 52.984375 3.324219 54.09375 3.847656 55.175781 4.425781 C 56.257812 5.003906 57.3125 5.636719 58.332031 6.320312 C 59.351562 7 60.339844 7.730469 61.289062 8.511719 C 62.238281 9.289062 63.144531 10.113281 64.015625 10.980469 C 64.882812 11.851562 65.707031 12.757812 66.484375 13.707031 C 67.265625 14.65625 67.996094 15.644531 68.679688 16.664062 C 69.359375 17.6875 69.992188 18.738281 70.570312 19.820312 C 71.148438 20.902344 71.671875 22.011719 72.144531 23.148438 C 72.613281 24.28125 73.027344 25.4375 73.382812 26.613281 C 73.738281 27.789062 74.039062 28.976562 74.277344 30.183594 C 74.515625 31.386719 74.695312 32.601562 74.816406 33.824219 C 74.9375 35.046875 74.996094 36.269531 74.996094 37.5 Z M 74.996094 37.5 " fill-opacity="1" fill-rule="nonzero"/><path fill="#ffffff" d="M 45.972656 24.6875 C 45.972656 25.246094 45.917969 25.796875 45.8125 26.34375 C 45.703125 26.886719 45.542969 27.417969 45.328125 27.933594 C 45.117188 28.445312 44.855469 28.933594 44.546875 29.398438 C 44.234375 29.859375 43.886719 30.289062 43.492188 30.679688 C 43.097656 31.074219 42.667969 31.425781 42.207031 31.734375 C 41.746094 32.042969 41.253906 32.304688 40.742188 32.519531 C 40.226562 32.730469 39.699219 32.894531 39.152344 33 C 38.605469 33.109375 38.054688 33.164062 37.5 33.164062 C 36.941406 33.164062 36.390625 33.109375 35.84375 33 C 35.300781 32.894531 34.769531 32.730469 34.253906 32.519531 C 33.742188 32.304688 33.253906 32.042969 32.789062 31.734375 C 32.328125 31.425781 31.898438 31.074219 31.503906 30.679688 C 31.113281 30.289062 30.761719 29.859375 30.453125 29.398438 C 30.140625 28.933594 29.882812 28.445312 29.667969 27.933594 C 29.457031 27.417969 29.292969 26.886719 29.1875 26.34375 C 29.078125 25.796875 29.023438 25.246094 29.023438 24.6875 C 29.023438 24.132812 29.078125 23.582031 29.1875 23.035156 C 29.292969 22.488281 29.457031 21.960938 29.667969 21.445312 C 29.882812 20.929688 30.140625 20.441406 30.453125 19.980469 C 30.761719 19.515625 31.113281 19.089844 31.503906 18.695312 C 31.898438 18.300781 32.328125 17.949219 32.789062 17.640625 C 33.253906 17.332031 33.742188 17.070312 34.253906 16.859375 C 34.769531 16.644531 35.300781 16.484375 35.84375 16.375 C 36.390625 16.269531 36.941406 16.214844 37.5 16.214844 C 38.054688 16.214844 38.605469 16.269531 39.152344 16.375 C 39.699219 16.484375 40.226562 16.644531 40.742188 16.859375 C 41.253906 17.070312 41.746094 17.332031 42.207031 17.640625 C 42.667969 17.949219 43.097656 18.300781 43.492188 18.695312 C 43.886719 19.089844 44.234375 19.515625 44.546875 19.980469 C 44.855469 20.441406 45.117188 20.929688 45.328125 21.445312 C 45.542969 21.960938 45.703125 22.488281 45.8125 23.035156 C 45.917969 23.582031 45.972656 24.132812 45.972656 24.6875 Z M 45.972656 24.6875 " fill-opacity="1" fill-rule="nonzero"/><path fill="#ffffff" d="M 53.296875 52.238281 C 53.296875 60.964844 21.699219 60.964844 21.699219 52.238281 C 21.699219 43.511719 28.773438 36.4375 37.5 36.4375 C 46.222656 36.4375 53.296875 43.511719 53.296875 52.238281 Z M 53.296875 52.238281 " fill-opacity="1" fill-rule="nonzero"/></svg>